<svg width="2059" height="308" viewBox="0 0 2059 308" fill="none" xmlns="http://www.w3.org/2000/svg">
<path d="M1894.48 99.495V72H2013.15V99.495H1968.97V235.325H1938.66V99.495H1894.48Z" fill="white"/>
<path d="M1868.19 235.325H1786.88L1767.84 216.29V90.8L1786.88 72H1868.19L1886.99 90.8V128.165H1856.67V99.495H1798.39V207.83H1856.67V179.16H1886.99V216.29L1868.19 235.325Z" fill="white"/>
<path d="M1710.08 235.325V72H1740.4V235.325H1710.08Z" fill="white"/>
<path d="M1656.5 235.325H1562.97V72H1656.5L1682.58 98.085V209.24L1656.5 235.325ZM1593.28 99.495V207.83H1643.1L1652.27 198.43V108.66L1643.1 99.495H1593.28Z" fill="white"/>
<path d="M1542.68 235.325H1438.57V72H1541.5V99.495H1468.89V141.56H1527.4V165.53H1468.89V207.83H1542.68V235.325Z" fill="white"/>
<path d="M1326.82 235.325H1296.51V72H1392.39L1411.19 90.8V150.49L1395.44 166.47L1411.89 183.155V235.325H1381.58V188.795L1371.94 179.16H1326.82V235.325ZM1380.87 144.85V97.145H1326.82V154.015H1371.71L1380.87 144.85Z" fill="white"/>
<path d="M1186.14 235.325H1155.82V72H1253.35L1271.91 90.8V156.835L1245.83 182.92H1186.14V235.325ZM1186.14 156.365H1232.43L1241.6 147.2V99.495H1186.14V156.365Z" fill="white"/>
<path d="M1097.89 235.325H993.782V72H1096.71V99.495H1024.1V141.56H1082.61V165.53H1024.1V207.83H1097.89V235.325Z" fill="white"/>
<path d="M859.615 99.495V72H978.29V99.495H934.11V235.325H903.795V99.495H859.615Z" fill="white"/>
<path d="M813.842 235.325V72H844.157V235.325H813.842Z" fill="white"/>
<path d="M654.106 235.325V72H684.421V139.68H752.571V72H782.886V235.325H752.571V166.235H684.421V235.325H654.106Z" fill="white"/>
<path d="M427.05 103.49V72H457.365V102.08L486.27 199.37L516.35 102.08V72H546.9V102.08L577.45 199.37L606.12 102.08V72H636.435V103.49L594.84 235.325H562.88L531.155 138.27L500.605 235.325H468.645L427.05 103.49Z" fill="white"/>
<path fill-rule="evenodd" clip-rule="evenodd" d="M368 183.424C368 184.899 367.655 186.353 366.993 187.673L338.837 243.749C337.221 246.967 333.917 249 330.304 249H250.34C245.071 249 240.8 244.747 240.8 239.5V226.833C240.8 221.587 236.529 217.333 231.26 217.333H186.74C181.471 217.333 177.2 221.587 177.2 226.833V239.5C177.2 244.747 172.929 249 167.66 249H87.696C84.0826 249 80.7792 246.967 79.1632 243.749L51.0072 187.673C50.3448 186.353 50 184.899 50 183.424V124.576C50 123.101 50.3448 121.647 51.0072 120.327L79.1632 64.2515C80.7792 61.033 84.0826 59 87.696 59H129.964C137.056 59 141.668 66.432 138.497 72.7485L114.607 120.327C113.945 121.647 113.6 123.101 113.6 124.576V176.167C113.6 181.413 117.871 185.667 123.14 185.667H167.66C172.929 185.667 177.2 181.413 177.2 176.167V124.576C177.2 123.101 177.545 121.647 178.207 120.327L206.363 64.2515C207.979 61.033 211.283 59 214.896 59H330.304C333.917 59 337.221 61.033 338.837 64.2515L366.993 120.327C367.655 121.647 368 123.101 368 124.576V183.424ZM250.34 122.333C245.071 122.333 240.8 126.587 240.8 131.833V176.167C240.8 181.413 245.071 185.667 250.34 185.667H294.86C300.129 185.667 304.4 181.413 304.4 176.167V131.833C304.4 126.587 300.129 122.333 294.86 122.333H250.34Z" fill="white"/>
</svg>
